<?xml version="1.0" encoding="utf-8"?>
<!-- Generator: Adobe Illustrator 16.0.0, SVG Export Plug-In . SVG Version: 6.00 Build 0)  -->
<!DOCTYPE svg PUBLIC "-//W3C//DTD SVG 1.1//EN" "http://www.w3.org/Graphics/SVG/1.1/DTD/svg11.dtd">
<svg version="1.1" id="Layer_1_xA0_Image_1_" xmlns="http://www.w3.org/2000/svg" xmlns:xlink="http://www.w3.org/1999/xlink"
	 x="0px" y="0px" width="162px" height="181px" viewBox="0 0 162 181" enable-background="new 0 0 162 181" xml:space="preserve">
<g>
	<path fill-rule="evenodd" clip-rule="evenodd" d="M129.667,83.685c-2.5,11-7.307,13.836-7.5,14.667
		c-1.109,4.771-4.922,12.784-9.667,15.143c0.75,8.006-2.561,9.608-5.123,13.991c-1.672,2.859-1.646,5.073,0.187,7.222
		c2.35,2.755,4.756,5.762,7.785,7.582c11.11,6.674,19.951,13.733,27.76,18.306S141.25,170,141.25,170
		c-4.466,2.777-6.537,3.442-11.625,4.625c-3.726,0.866-5.249,0.172-9.458,1.896c-3.841,1.16-5.583,1.516-11.297,0.82
		c-3.614-0.439-6.906,1.378-9.584,1.642c-3.307,0.326-5.203-0.731-7.071-2.834c-1.355-1.525-1.942-5.105-1.813-7.745
		c0.274-5.64,1.07-11.271,1.938-16.86c0.692-4.46-0.687-6.823-5.356-7.646c-4.319-0.761-7.956-1.919-11.796,2.185
		c-3.11,3.323-5.902-0.282-8.086-2.83c-3.088-3.603-6.196-7.188-9.212-10.85c-4.004-4.862-8.227-9.582-11.821-14.735
		c-6.309-9.045-16.178-10.377-23.598-2.248c-6.045,6.623-11.38,13.895-17.042,20.868c-1.061,1.308-2.177,2.57-3.268,3.853
		c-0.387-0.254-0.774-0.509-1.162-0.764c0.669-1.39,1.228-2.848,2.025-4.159c5.364-8.818,10.922-17.521,16.09-26.452
		c1.541-2.662,2.186-5.892,2.98-8.929c3.642-13.922,7.66-17.476,21.933-19.89c1.424-0.24,3.246-2.263,3.642-3.781
		c2.728-10.475,4.976-21.074,7.739-31.539c0.642-2.43,2.678-4.491,4.071-6.723c1.464,2.062,3.749,3.943,4.248,6.217
		c2.063,9.402,3.657,18.91,5.281,28.403c1.272,7.438,2.335,14.912,3.633,23.287c2.137-1.506,3.855-2.596,5.441-3.854
		c11.888-9.432,20.133-22.079,29.722-33.559c14.3-17.119,28.886-33.999,43.475-50.873c1.883-2.178,4.507-3.714,7.47-6.095
		c-0.623,7.342,0.202,13.691-1.867,18.891c-5.418,13.617-4.743,21.356-12.606,34.137c-3.101,5.04-4.853,14.354-9.026,20.042"/>
</g>
</svg>
