<?xml version="1.0" encoding="utf-8"?>
<!-- Generator: Adobe Illustrator 16.0.0, SVG Export Plug-In . SVG Version: 6.00 Build 0)  -->
<!DOCTYPE svg PUBLIC "-//W3C//DTD SVG 1.1//EN" "http://www.w3.org/Graphics/SVG/1.1/DTD/svg11.dtd">
<svg version="1.1" id="Layer_1" xmlns="http://www.w3.org/2000/svg" xmlns:xlink="http://www.w3.org/1999/xlink" x="0px" y="0px"
	 width="86.375px" height="73.25px" viewBox="0 0 86.375 73.25" enable-background="new 0 0 86.375 73.25" xml:space="preserve">
<g>
	<g>
		<path fill="#1C75BC" d="M40.092,1.854c4.348,0,8.445,0.614,12.295,1.842c1.727,0.565,2.904,0.846,3.535,0.846
			c0.664,0,2.059-0.381,4.182-1.145c0.697-0.231,1.41-0.348,2.141-0.348c1.859,0,3.635,1.095,5.326,3.286
			c2.723,3.518,4.082,7.368,4.082,11.549c0,2.854-0.721,5.161-2.164,6.919c-1.443,1.76-3.344,2.639-5.701,2.639
			c-1.924,0-3.816-0.697-5.674-2.091c-0.566-0.431-1.941-1.991-4.133-4.68c-3.65-4.48-7.849-6.72-12.594-6.72
			c-4.315,0-7.742,1.577-10.28,4.729c-2.539,3.153-3.809,7.401-3.809,12.744c0,7.933,2.024,14.686,6.074,20.261
			c1.526,2.024,3.352,3.643,5.476,4.854c2.123,1.212,4.231,1.817,6.322,1.817c1.725,0,3.145-0.572,4.256-1.718
			c1.111-1.145,1.668-2.613,1.668-4.405c0-1.593-0.465-2.721-1.395-3.386c-0.365-0.265-0.705-0.423-1.02-0.473
			c-0.316-0.05-1.27-0.074-2.863-0.074c-1.427,0-2.613-0.456-3.559-1.369c-0.946-0.912-1.419-2.066-1.419-3.46
			c0-2.755,1.825-4.712,5.476-5.875c4.016-1.261,8.645-1.892,13.889-1.892c5.609,0,10.322,0.581,14.139,1.743
			c3.617,1.128,5.426,3.169,5.426,6.123c0,1.194-0.416,2.232-1.244,3.111c-0.83,0.88-1.908,1.402-3.236,1.568
			c-1.162,0.166-1.916,0.423-2.266,0.771c-0.348,0.349-0.705,1.203-1.07,2.563c-1.426,5.277-4.215,9.691-8.363,13.242
			c-2.854,2.423-6.297,4.314-10.328,5.675c-4.033,1.36-8.273,2.041-12.72,2.041c-7.268,0-13.939-1.675-20.012-5.027
			c-6.24-3.418-10.986-8.197-14.238-14.338c-2.722-5.11-4.082-10.636-4.082-16.577c0-6.006,1.625-11.715,4.878-17.125
			c3.451-5.807,8.28-10.288,14.487-13.441C26.982,3.248,33.155,1.854,40.092,1.854z"/>
	</g>
	<linearGradient id="SVGID_1_" gradientUnits="userSpaceOnUse" x1="97.6563" y1="-1.2866" x2="97.6563" y2="-1.2866">
		<stop  offset="0" style="stop-color:#FFFFFF"/>
		<stop  offset="1" style="stop-color:#545456"/>
	</linearGradient>
	<path fill="url(#SVGID_1_)" d="M97.656-1.287"/>
	<path fill="#2B3990" d="M51.014,51.205c0.17,1.188-0.416,3.672-0.416,3.672c0.076,0.074,12.65,10.199,12.65,10.199
		c2.152-1.586,6.363-6.574,6.063-7.026c-0.303-0.453-22.656-20.467-22.656-20.467"/>
	<path fill="#FFFFFF" d="M49.578,41.676c0,0,19.049,17.499,19.156,17.523l0.363-0.516C67.9,58.036,49.736,41.066,49.736,41.066
		L49.578,41.676z"/>
	<g>
		<path fill="#2B3990" d="M46.096,61.759c0,0-2.129-1.315,0.758-7.067c2.543-5.067,11.666-6.583,15.404-10.603
			c3.654-3.929,1.352-7.208,1.352-7.208l-3.666,0.555c0,0,0.496-2.872-3.482,1.908c-3.063,3.68-12.555,4.383-15.558,10.478
			c-2.628,5.33,0.238,8.087,0.238,8.087L46.096,61.759z"/>
		<path fill="#FFFFFF" d="M59.037,36.605c-0.385,0.827-1.004,1.816-1.975,2.997c-0.037,0.046-0.076,0.093-0.117,0.142
			c-0.543,0.654-1.268,1.207-2.107,1.709c-0.838,0.503-1.791,0.955-2.795,1.4c-2.012,0.889-4.234,1.751-6.18,2.905
			c-1.297,0.77-2.471,1.665-3.381,2.776l-0.002,0.003l-0.002,0.001c-0.406,0.495-0.762,1.037-1.053,1.628
			c-0.92,1.867-1.186,3.372-1.064,4.555c0.156,1.474,0.881,2.89,1.268,3.567l0.763,0.592l0.055-0.031
			c-0.041-0.047-0.133-0.159-0.246-0.343L42.2,58.504l0.001,0.003c-0.256-0.417-1.198-2.023-1.366-3.652
			c-0.115-1.092,0.131-2.555,1.036-4.391c0.283-0.573,0.627-1.1,1.025-1.582V48.88c0.889-1.085,2.038-1.965,3.32-2.725
			c1.92-1.138,4.131-1.999,6.15-2.891c1.01-0.447,1.973-0.903,2.826-1.414c0.854-0.513,1.602-1.08,2.17-1.763
			c0.039-0.049,0.08-0.096,0.119-0.143c0.977-1.193,1.609-2.197,2.004-3.048 M63.029,37.609c0.178,0.676,0.311,1.43,0.248,1.942
			c-0.113,0.907-0.469,2.05-1.498,3.308c-0.125,0.152-0.26,0.307-0.406,0.465c-0.793,0.853-1.875,1.612-3.111,2.32
			c-1.854,1.067-4.055,2.021-6.117,3.098c-2.066,1.079-4.008,2.277-5.332,3.89c-0.359,0.438-0.672,0.907-0.926,1.413
			c-0.666,1.328-1.078,2.437-1.313,3.37c-0.047,0.186-0.084,0.438-0.113,0.729c-0.045,0.434-0.07,0.946-0.072,1.416
			c0,0.236,0.006,0.459,0.019,0.657c0.007,0.089,0.014,0.17,0.022,0.247l0.523,0.407c-0.008-0.024-0.016-0.046-0.019-0.06
			c-0.028-0.136-0.054-0.371-0.064-0.645c-0.015-0.409-0.004-0.912,0.024-1.376c0.033-0.462,0.083-0.888,0.145-1.129
			c0.23-0.911,0.633-2.003,1.293-3.319c0.246-0.488,0.549-0.942,0.898-1.369c1.287-1.569,3.199-2.755,5.254-3.826
			c2.053-1.072,4.256-2.027,6.127-3.104c1.25-0.717,2.352-1.485,3.172-2.367c0.146-0.16,0.285-0.318,0.414-0.475
			c1.057-1.29,1.436-2.485,1.553-3.438c0.07-0.596-0.078-1.383-0.26-2.084c-0.121-0.457-0.254-0.872-0.361-1.172l-0.621-0.484
			c0.014,0.031,0.029,0.064,0.043,0.101C62.635,36.333,62.852,36.935,63.029,37.609z"/>
		<path fill="#2B3990" d="M79.838,62.142c0,0,2.021-1.48-1.309-6.987c-2.932-4.853-12.146-5.646-16.189-9.359
			c-3.951-3.633-1.914-7.082-1.914-7.082l4.656-4.25c0,0-1.676,1.692,2.664,6.145c3.342,3.429,12.859,3.384,16.332,9.223
			c3.039,5.109,0.398,8.081,0.398,8.081L79.838,62.142z"/>
		<path fill="#FFFFFF" d="M84.02,58.33c0.332-0.705,0.943-2.174,0.982-3.655c0.027-1.19-0.354-2.669-1.416-4.458
			c-0.336-0.566-0.734-1.076-1.18-1.54v-0.002l-0.002-0.001c-0.996-1.037-2.236-1.838-3.588-2.501
			c-2.031-0.999-4.314-1.685-6.391-2.413c-1.035-0.365-2.021-0.741-2.898-1.176c-0.873-0.436-1.639-0.93-2.234-1.539
			c-0.043-0.045-0.086-0.088-0.129-0.132c-1.055-1.103-1.752-2.038-2.199-2.833c-0.338-0.596-0.535-1.111-0.641-1.56
			c-0.002-0.007-0.006-0.03-0.012-0.061c-0.004-0.032-0.01-0.073-0.016-0.122c-0.014-0.096-0.025-0.225-0.031-0.37
			c-0.014-0.232-0.012-0.511,0.018-0.774l-0.48,0.439c-0.002,0.008-0.002,0.019-0.004,0.027c-0.014,0.42,0.023,0.801,0.051,0.994
			c0.01,0.055,0.016,0.094,0.021,0.121c0.111,0.48,0.32,1.018,0.668,1.631c0.461,0.816,1.17,1.769,2.236,2.881
			c0.043,0.043,0.086,0.088,0.129,0.134c0.621,0.636,1.412,1.144,2.303,1.587c0.891,0.442,1.887,0.82,2.928,1.187
			c2.082,0.73,4.354,1.416,6.359,2.401c1.336,0.654,2.551,1.443,3.523,2.454h0.002c0.432,0.452,0.816,0.949,1.145,1.497
			c1.047,1.76,1.406,3.2,1.377,4.297c-0.039,1.638-0.854,3.314-1.074,3.748V58.59v0.002c-0.1,0.191-0.182,0.312-0.219,0.363
			l0.059,0.024L84.02,58.33z M61.422,37.877c0.012-0.037,0.023-0.072,0.035-0.104l-0.582,0.531
			c-0.082,0.308-0.184,0.732-0.268,1.196c-0.125,0.713-0.211,1.51-0.094,2.098c0.193,0.943,0.66,2.104,1.818,3.307
			c0.139,0.146,0.289,0.294,0.451,0.439c0.883,0.816,2.043,1.496,3.346,2.113c1.949,0.925,4.219,1.705,6.352,2.612
			c2.131,0.906,4.131,1.939,5.539,3.403c0.381,0.396,0.719,0.826,1.002,1.293c0.762,1.261,1.25,2.317,1.549,3.207
			c0.08,0.237,0.166,0.657,0.23,1.114c0.068,0.46,0.117,0.961,0.135,1.37c0.01,0.273,0.006,0.51-0.014,0.647
			c-0.004,0.014-0.008,0.036-0.014,0.061l0.49-0.447c0.004-0.077,0.006-0.158,0.004-0.248c-0.004-0.197-0.016-0.421-0.035-0.655
			c-0.037-0.468-0.104-0.979-0.182-1.407c-0.053-0.286-0.109-0.534-0.17-0.716c-0.309-0.913-0.805-1.985-1.574-3.257
			c-0.293-0.485-0.641-0.929-1.033-1.337c-1.447-1.504-3.477-2.545-5.619-3.46c-2.145-0.911-4.41-1.688-6.344-2.606
			c-1.289-0.609-2.426-1.281-3.283-2.07c-0.158-0.145-0.305-0.287-0.441-0.431c-1.125-1.173-1.568-2.284-1.75-3.179
			c-0.105-0.506-0.033-1.27,0.092-1.957C61.186,38.707,61.355,38.091,61.422,37.877z"/>
		<g>
			<g>
				<path fill="#262262" d="M59.639,36.984c0,0,1.104-0.413,3.025-0.207c0,0,14.096-8.751,15.754-8.575
					c1.66,0.177,4.885,10.565,4.104,17.928c-0.309,2.885-18.428-5.26-19.215-5.344c-0.787-0.082-3.279,0.095-3.279,0.095
					s-16.305,9.52-19.272,5.846c-2.967-3.673,0.565-17.787,2.225-17.61C44.641,29.294,56.357,32.926,59.639,36.984z"/>
				<path fill="#2B3990" d="M59.824,35.237c0,0,1.104-0.413,3.025-0.208c0,0,14.096-8.751,15.756-8.574
					c1.658,0.175,4.883,10.564,4.102,17.928c-0.309,2.883-19.473-3.837-20.26-3.921c-0.785-0.082-3.279,0.094-3.279,0.094
					s-15.26,8.097-18.227,4.425c-2.966-3.673,0.565-17.788,2.225-17.611C44.826,27.547,56.543,31.178,59.824,35.237z"/>
				<path fill="#FFFFFF" d="M63.264,36.195c0.002-0.002,0.871-0.411,2.191-1.188c1.98-1.164,4.994-2.83,7.766-4.34
					c1.385-0.755,2.705-1.448,3.791-1.972c1.078-0.522,1.955-0.878,2.332-0.945c0.039-0.009,0.072-0.012,0.094-0.014
					c0.02-0.001,0.031-0.002,0.031-0.002l0.324,0.036c-0.199-0.369-0.395-0.669-0.58-0.89c-0.01,0.002-0.021,0.003-0.033,0.005
					c-0.756,0.151-2.064,0.759-3.725,1.602c-4.947,2.527-12.639,7.143-12.646,7.145 M57.436,39.463
					c-2.447,1.088-7.916,3.368-12.215,4.187c-1.297,0.247-2.485,0.36-3.427,0.278c-0.688-0.061-1.223-0.222-1.597-0.473
					c0.129,0.44,0.292,0.835,0.497,1.169c0.32,0.089,0.662,0.147,1.025,0.181c1.069,0.091,2.322-0.034,3.666-0.291
					c5.92-1.134,13.709-4.84,13.729-4.847l-0.379-0.794C58.734,38.873,58.254,39.1,57.436,39.463z M62.941,39.855
					c2.484,0.754,8.352,2.486,11.68,3.294c1.664,0.403,3.264,0.746,4.641,0.951c1.383,0.204,2.523,0.284,3.346,0.132
					c0.039-0.007,0.076-0.018,0.115-0.026c0.029-0.311,0.055-0.626,0.07-0.945c-0.08,0.038-0.197,0.078-0.352,0.108
					c-0.838,0.167-2.547-0.008-4.553-0.398c-3.023-0.585-6.787-1.625-9.854-2.526c-1.533-0.449-2.895-0.865-3.906-1.172
					c-0.506-0.153-0.643-0.19-0.953-0.282 M50.688,30.377c-1.922-0.733-3.789-1.345-5.285-1.783
					c-1.322-0.387-2.329-0.64-2.885-0.732c-0.149,0.214-0.306,0.495-0.461,0.83l0.164,0.017c0.34,0.034,1.467,0.298,2.934,0.73
					c2.211,0.65,5.268,1.685,8.061,2.93c2.791,1.238,5.135,2.491,6.262,3.901l0.424-0.576
					C58.125,33.523,54.537,31.857,50.688,30.377z"/>
			</g>
		</g>
		<polygon fill="#FFFFFF" points="58.734,38.873 63.176,38.99 62.941,39.855 59.113,39.667 		"/>
		<path fill="#FFFFFF" d="M59.9,35.693c0.279-0.361,2.738-0.271,2.908-0.061c0.172,0.213,0.455,0.563,0.455,0.563
			s-2.475-0.406-3.787,0.074"/>
	</g>
	<path fill="#FFFFFF" d="M50.646,54.3c0,0,13.051,10.38,13.119,10.395l0.35-0.335c-0.781-0.423-13.367-10.457-13.367-10.457
		L50.646,54.3z"/>
	<path fill="#2B3990" d="M30.693,19.127C30.618,19.052,17.584,8.609,17.584,8.609c-2.204,1.489-3.892,2.318-6.91,6.056
		c-0.341,0.424,16.692,15.39,16.692,15.39"/>
	<path fill="#FFFFFF" d="M27.802,28.755c0,0-16.47-14.902-16.562-14.923l-0.317,0.439c1.041,0.55,16.723,14.958,16.723,14.958
		L27.802,28.755z"/>
	<path fill="#FFFFFF" d="M30.508,19.863c0,0-13.342-10.923-13.411-10.939l-0.365,0.229c0.781,0.421,13.673,11.109,13.673,11.109
		L30.508,19.863z"/>
</g>
</svg>
