<?xml version="1.0" encoding="utf-8"?>
<!-- Generator: Adobe Illustrator 16.0.0, SVG Export Plug-In . SVG Version: 6.00 Build 0)  -->
<!DOCTYPE svg PUBLIC "-//W3C//DTD SVG 1.1//EN" "http://www.w3.org/Graphics/SVG/1.1/DTD/svg11.dtd">
<svg version="1.1" id="Layer_1" xmlns="http://www.w3.org/2000/svg" xmlns:xlink="http://www.w3.org/1999/xlink" x="0px" y="0px"
	 width="100px" height="64.4px" viewBox="0 0 100 64.4" enable-background="new 0 0 100 64.4" xml:space="preserve">
<g>
	<g>
		<line fill="none" stroke="#33394B" stroke-width="0.4" stroke-miterlimit="10" x1="49.667" y1="23.733" x2="49.667" y2="40.722"/>
		<line fill="none" stroke="#33394B" stroke-width="0.4" stroke-miterlimit="10" x1="58.162" y1="31.982" x2="41.17" y2="31.982"/>
		<line fill="none" stroke="#33394B" stroke-width="0.4" stroke-miterlimit="10" x1="55.646" y1="38.016" x2="43.685" y2="25.951"/>
		<line fill="none" stroke="#33394B" stroke-width="0.4" stroke-miterlimit="10" x1="55.846" y1="26.15" x2="43.487" y2="37.816"/>
	</g>
	<g>
		<line fill="none" stroke="#33394B" stroke-width="0.4" stroke-miterlimit="10" x1="70.743" y1="23.489" x2="70.743" y2="40.477"/>
		<line fill="none" stroke="#33394B" stroke-width="0.4" stroke-miterlimit="10" x1="79.241" y1="31.739" x2="62.249" y2="31.739"/>
		<line fill="none" stroke="#33394B" stroke-width="0.4" stroke-miterlimit="10" x1="76.726" y1="37.771" x2="64.761" y2="25.707"/>
		<line fill="none" stroke="#33394B" stroke-width="0.4" stroke-miterlimit="10" x1="76.924" y1="25.905" x2="64.566" y2="37.571"/>
	</g>
	<g>
		<line fill="none" stroke="#33394B" stroke-width="0.4" stroke-miterlimit="10" x1="29.229" y1="23.733" x2="29.229" y2="40.722"/>
		<line fill="none" stroke="#33394B" stroke-width="0.4" stroke-miterlimit="10" x1="37.723" y1="31.982" x2="20.732" y2="31.982"/>
		<line fill="none" stroke="#33394B" stroke-width="0.4" stroke-miterlimit="10" x1="35.208" y1="38.016" x2="23.246" y2="25.951"/>
		<line fill="none" stroke="#33394B" stroke-width="0.4" stroke-miterlimit="10" x1="35.405" y1="26.15" x2="23.049" y2="37.816"/>
	</g>
	<g>
		<line fill="none" stroke="#33394B" stroke-width="0.4" stroke-miterlimit="10" x1="89.522" y1="23" x2="89.522" y2="39.989"/>
		<line fill="none" stroke="#33394B" stroke-width="0.4" stroke-miterlimit="10" x1="98.021" y1="31.25" x2="81.028" y2="31.25"/>
		<line fill="none" stroke="#33394B" stroke-width="0.4" stroke-miterlimit="10" x1="95.505" y1="37.283" x2="83.54" y2="25.218"/>
		<line fill="none" stroke="#33394B" stroke-width="0.4" stroke-miterlimit="10" x1="95.703" y1="25.417" x2="83.346" y2="37.083"/>
	</g>
	<g>
		<line fill="none" stroke="#33394B" stroke-width="0.4" stroke-miterlimit="10" x1="10.476" y1="24.412" x2="10.476" y2="41.399"/>
		<line fill="none" stroke="#33394B" stroke-width="0.4" stroke-miterlimit="10" x1="18.97" y1="32.662" x2="1.98" y2="32.662"/>
		<line fill="none" stroke="#33394B" stroke-width="0.4" stroke-miterlimit="10" x1="16.456" y1="38.694" x2="4.494" y2="26.63"/>
		<line fill="none" stroke="#33394B" stroke-width="0.4" stroke-miterlimit="10" x1="16.653" y1="26.829" x2="4.297" y2="38.495"/>
	</g>
</g>
</svg>
